ply
format ascii 1.0
element vertex 150
property float x
property float y
property float z
property float nx
property float ny
property float nz
end_header
0 -0.367879 0 -0.735759 -0 0
0.00666667 -0.377754 0 -0.745435 -0.00666667 0
0.0133333 -0.387756 0 -0.754833 -0.0133333 0
0.02 -0.397882 0 -0.763933 -0.02 0
0.0266667 -0.408127 0 -0.77272 -0.0266667 0
0.0333333 -0.418486 0 -0.781174 -0.0333333 0
0.04 -0.428956 0 -0.78928 -0.04 0
0.0466667 -0.439532 0 -0.797018 -0.0466667 0
0.0533333 -0.450209 0 -0.804373 -0.0533333 0
0.06 -0.46098 0 -0.811325 -0.06 0
0.0666667 -0.471842 0 -0.817859 -0.0666667 0
0.0733333 -0.482788 0 -0.823958 -0.0733333 0
0.08 -0.493812 0 -0.829604 -0.08 0
0.0866667 -0.504909 0 -0.834782 -0.0866667 0
0.0933333 -0.516071 0 -0.839475 -0.0933333 0
0.1 -0.527292 0 -0.843668 -0.1 0
0.106667 -0.538566 0 -0.847344 -0.106667 0
0.113333 -0.549886 0 -0.85049 -0.113333 0
0.12 -0.561244 0 -0.85309 -0.12 0
0.126667 -0.572633 0 -0.855131 -0.126667 0
0.133333 -0.584045 0 -0.856599 -0.133333 0
0.14 -0.595473 0 -0.85748 -0.14 0
0.146667 -0.606908 0 -0.857764 -0.146667 0
0.153333 -0.618344 0 -0.857436 -0.153333 0
0.16 -0.62977 0 -0.856488 -0.16 0
0.166667 -0.64118 0 -0.854907 -0.166667 0
0.173333 -0.652565 0 -0.852685 -0.173333 0
0.18 -0.663916 0 -0.849812 -0.18 0
0.186667 -0.675224 0 -0.84628 -0.186667 0
0.193333 -0.68648 0 -0.842082 -0.193333 0
0.2 -0.697676 0 -0.837212 -0.2 0
0.206667 -0.708803 0 -0.831662 -0.206667 0
0.213333 -0.719851 0 -0.825429 -0.213333 0
0.22 -0.730811 0 -0.818509 -0.22 0
0.226667 -0.741675 0 -0.810898 -0.226667 0
0.233333 -0.752432 0 -0.802594 -0.233333 0
0.24 -0.763074 0 -0.793597 -0.24 0
0.246667 -0.773592 0 -0.783906 -0.246667 0
0.253333 -0.783975 0 -0.773522 -0.253333 0
0.26 -0.794216 0 -0.762447 -0.26 0
0.266667 -0.804304 0 -0.750684 -0.266667 0
0.273333 -0.814231 0 -0.738236 -0.273333 0
0.28 -0.823987 0 -0.725109 -0.28 0
0.286667 -0.833564 0 -0.711308 -0.286667 0
0.293333 -0.842953 0 -0.696841 -0.293333 0
0.3 -0.852144 0 -0.681715 -0.3 0
0.306667 -0.861129 0 -0.66594 -0.306667 0
0.313333 -0.869899 0 -0.649525 -0.313333 0
0.32 -0.878447 0 -0.632482 -0.32 0
0.326667 -0.886763 0 -0.614822 -0.326667 0
0.333333 -0.894839 0 -0.59656 -0.333333 0
0.34 -0.902668 0 -0.577708 -0.34 0
0.346667 -0.910242 0 -0.558282 -0.346667 0
0.353333 -0.917553 0 -0.538298 -0.353333 0
0.36 -0.924595 0 -0.517773 -0.36 0
0.366667 -0.931358 0 -0.496725 -0.366667 0
0.373333 -0.937838 0 -0.475171 -0.373333 0
0.38 -0.944027 0 -0.453133 -0.38 0
0.386667 -0.94992 0 -0.43063 -0.386667 0
0.393333 -0.955509 0 -0.407684 -0.393333 0
0.4 -0.960789 0 -0.384316 -0.4 0
0.406667 -0.965756 0 -0.360549 -0.406667 0
0.413333 -0.970402 0 -0.336406 -0.413333 0
0.42 -0.974725 0 -0.311912 -0.42 0
0.426667 -0.978719 0 -0.287091 -0.426667 0
0.433333 -0.982379 0 -0.261968 -0.433333 0
0.44 -0.985703 0 -0.236569 -0.44 0
0.446667 -0.988687 0 -0.21092 -0.446667 0
0.453333 -0.991327 0 -0.185048 -0.453333 0
0.46 -0.99362 0 -0.158979 -0.46 0
0.466667 -0.995565 0 -0.132742 -0.466667 0
0.473333 -0.99716 0 -0.106364 -0.473333 0
0.48 -0.998401 0 -0.0798721 -0.48 0
0.486667 -0.999289 0 -0.0532954 -0.486667 0
0.493333 -0.999822 0 -0.0266619 -0.493333 0
0.5 -1 0 0 -0.5 0
0.506667 -0.999822 0 0.0266619 -0.506667 0
0.513333 -0.999289 0 0.0532954 -0.513333 0
0.52 -0.998401 0 0.0798721 -0.52 0
0.526667 -0.99716 0 0.106364 -0.526667 0
0.533333 -0.995565 0 0.132742 -0.533333 0
0.54 -0.99362 0 0.158979 -0.54 0
0.546667 -0.991327 0 0.185048 -0.546667 0
0.553333 -0.988687 0 0.21092 -0.553333 0
0.56 -0.985703 0 0.236569 -0.56 0
0.566667 -0.982379 0 0.261968 -0.566667 0
0.573333 -0.978719 0 0.287091 -0.573333 0
0.58 -0.974725 0 0.311912 -0.58 0
0.586667 -0.970402 0 0.336406 -0.586667 0
0.593333 -0.965756 0 0.360549 -0.593333 0
0.6 -0.960789 0 0.384316 -0.6 0
0.606667 -0.955509 0 0.407684 -0.606667 0
0.613333 -0.94992 0 0.43063 -0.613333 0
0.62 -0.944027 0 0.453133 -0.62 0
0.626667 -0.937838 0 0.475171 -0.626667 0
0.633333 -0.931358 0 0.496725 -0.633333 0
0.64 -0.924595 0 0.517773 -0.64 0
0.646667 -0.917553 0 0.538298 -0.646667 0
0.653333 -0.910242 0 0.558282 -0.653333 0
0.66 -0.902668 0 0.577708 -0.66 0
0.666667 -0.894839 0 0.59656 -0.666667 0
0.673333 -0.886763 0 0.614822 -0.673333 0
0.68 -0.878447 0 0.632482 -0.68 0
0.686667 -0.869899 0 0.649525 -0.686667 0
0.693333 -0.861129 0 0.66594 -0.693333 0
0.7 -0.852144 0 0.681715 -0.7 0
0.706667 -0.842953 0 0.696841 -0.706667 0
0.713333 -0.833564 0 0.711308 -0.713333 0
0.72 -0.823987 0 0.725109 -0.72 0
0.726667 -0.814231 0 0.738236 -0.726667 0
0.733333 -0.804304 0 0.750684 -0.733333 0
0.74 -0.794216 0 0.762447 -0.74 0
0.746667 -0.783975 0 0.773522 -0.746667 0
0.753333 -0.773592 0 0.783906 -0.753333 0
0.76 -0.763074 0 0.793597 -0.76 0
0.766667 -0.752432 0 0.802594 -0.766667 0
0.773333 -0.741675 0 0.810898 -0.773333 0
0.78 -0.730811 0 0.818509 -0.78 0
0.786667 -0.719851 0 0.825429 -0.786667 0
0.793333 -0.708803 0 0.831662 -0.793333 0
0.8 -0.697676 0 0.837212 -0.8 0
0.806667 -0.68648 0 0.842082 -0.806667 0
0.813333 -0.675224 0 0.84628 -0.813333 0
0.82 -0.663916 0 0.849812 -0.82 0
0.826667 -0.652565 0 0.852685 -0.826667 0
0.833333 -0.64118 0 0.854907 -0.833333 0
0.84 -0.62977 0 0.856488 -0.84 0
0.846667 -0.618344 0 0.857436 -0.846667 0
0.853333 -0.606908 0 0.857764 -0.853333 0
0.86 -0.595473 0 0.85748 -0.86 0
0.866667 -0.584045 0 0.856599 -0.866667 0
0.873333 -0.572633 0 0.855131 -0.873333 0
0.88 -0.561244 0 0.85309 -0.88 0
0.886667 -0.549886 0 0.85049 -0.886667 0
0.893333 -0.538566 0 0.847344 -0.893333 0
0.9 -0.527292 0 0.843668 -0.9 0
0.906667 -0.516071 0 0.839475 -0.906667 0
0.913333 -0.504909 0 0.834782 -0.913333 0
0.92 -0.493812 0 0.829604 -0.92 0
0.926667 -0.482788 0 0.823958 -0.926667 0
0.933333 -0.471842 0 0.817859 -0.933333 0
0.94 -0.46098 0 0.811325 -0.94 0
0.946667 -0.450209 0 0.804373 -0.946667 0
0.953333 -0.439532 0 0.797018 -0.953333 0
0.96 -0.428956 0 0.78928 -0.96 0
0.966667 -0.418486 0 0.781174 -0.966667 0
0.973333 -0.408127 0 0.77272 -0.973333 0
0.98 -0.397882 0 0.763933 -0.98 0
0.986667 -0.387756 0 0.754833 -0.986667 0
0.993333 -0.377754 0 0.745435 -0.993333 0
