ply
format ascii 1.0
element vertex 150
property float x
property float y
property float z
property float nx
property float ny
property float nz
end_header
-0.367879 0 0 -0 -0.735759 0
-0.377754 0.00666667 0 -0.00666667 -0.745435 0
-0.387756 0.0133333 0 -0.0133333 -0.754833 0
-0.397882 0.02 0 -0.02 -0.763933 0
-0.408127 0.0266667 0 -0.0266667 -0.77272 0
-0.418486 0.0333333 0 -0.0333333 -0.781174 0
-0.428956 0.04 0 -0.04 -0.78928 0
-0.439532 0.0466667 0 -0.0466667 -0.797018 0
-0.450209 0.0533333 0 -0.0533333 -0.804373 0
-0.46098 0.06 0 -0.06 -0.811325 0
-0.471842 0.0666667 0 -0.0666667 -0.817859 0
-0.482788 0.0733333 0 -0.0733333 -0.823958 0
-0.493812 0.08 0 -0.08 -0.829604 0
-0.504909 0.0866667 0 -0.0866667 -0.834782 0
-0.516071 0.0933333 0 -0.0933333 -0.839475 0
-0.527292 0.1 0 -0.1 -0.843668 0
-0.538566 0.106667 0 -0.106667 -0.847344 0
-0.549886 0.113333 0 -0.113333 -0.85049 0
-0.561244 0.12 0 -0.12 -0.85309 0
-0.572633 0.126667 0 -0.126667 -0.855131 0
-0.584045 0.133333 0 -0.133333 -0.856599 0
-0.595473 0.14 0 -0.14 -0.85748 0
-0.606908 0.146667 0 -0.146667 -0.857764 0
-0.618344 0.153333 0 -0.153333 -0.857436 0
-0.62977 0.16 0 -0.16 -0.856488 0
-0.64118 0.166667 0 -0.166667 -0.854907 0
-0.652565 0.173333 0 -0.173333 -0.852685 0
-0.663916 0.18 0 -0.18 -0.849812 0
-0.675224 0.186667 0 -0.186667 -0.84628 0
-0.68648 0.193333 0 -0.193333 -0.842082 0
-0.697676 0.2 0 -0.2 -0.837212 0
-0.708803 0.206667 0 -0.206667 -0.831662 0
-0.719851 0.213333 0 -0.213333 -0.825429 0
-0.730811 0.22 0 -0.22 -0.818509 0
-0.741675 0.226667 0 -0.226667 -0.810898 0
-0.752432 0.233333 0 -0.233333 -0.802594 0
-0.763074 0.24 0 -0.24 -0.793597 0
-0.773592 0.246667 0 -0.246667 -0.783906 0
-0.783975 0.253333 0 -0.253333 -0.773522 0
-0.794216 0.26 0 -0.26 -0.762447 0
-0.804304 0.266667 0 -0.266667 -0.750684 0
-0.814231 0.273333 0 -0.273333 -0.738236 0
-0.823987 0.28 0 -0.28 -0.725109 0
-0.833564 0.286667 0 -0.286667 -0.711308 0
-0.842953 0.293333 0 -0.293333 -0.696841 0
-0.852144 0.3 0 -0.3 -0.681715 0
-0.861129 0.306667 0 -0.306667 -0.66594 0
-0.869899 0.313333 0 -0.313333 -0.649525 0
-0.878447 0.32 0 -0.32 -0.632482 0
-0.886763 0.326667 0 -0.326667 -0.614822 0
-0.894839 0.333333 0 -0.333333 -0.59656 0
-0.902668 0.34 0 -0.34 -0.577708 0
-0.910242 0.346667 0 -0.346667 -0.558282 0
-0.917553 0.353333 0 -0.353333 -0.538298 0
-0.924595 0.36 0 -0.36 -0.517773 0
-0.931358 0.366667 0 -0.366667 -0.496725 0
-0.937838 0.373333 0 -0.373333 -0.475171 0
-0.944027 0.38 0 -0.38 -0.453133 0
-0.94992 0.386667 0 -0.386667 -0.43063 0
-0.955509 0.393333 0 -0.393333 -0.407684 0
-0.960789 0.4 0 -0.4 -0.384316 0
-0.965756 0.406667 0 -0.406667 -0.360549 0
-0.970402 0.413333 0 -0.413333 -0.336406 0
-0.974725 0.42 0 -0.42 -0.311912 0
-0.978719 0.426667 0 -0.426667 -0.287091 0
-0.982379 0.433333 0 -0.433333 -0.261968 0
-0.985703 0.44 0 -0.44 -0.236569 0
-0.988687 0.446667 0 -0.446667 -0.21092 0
-0.991327 0.453333 0 -0.453333 -0.185048 0
-0.99362 0.46 0 -0.46 -0.158979 0
-0.995565 0.466667 0 -0.466667 -0.132742 0
-0.99716 0.473333 0 -0.473333 -0.106364 0
-0.998401 0.48 0 -0.48 -0.0798721 0
-0.999289 0.486667 0 -0.486667 -0.0532954 0
-0.999822 0.493333 0 -0.493333 -0.0266619 0
-1 0.5 0 -0.5 0 0
-0.999822 0.506667 0 -0.506667 0.0266619 0
-0.999289 0.513333 0 -0.513333 0.0532954 0
-0.998401 0.52 0 -0.52 0.0798721 0
-0.99716 0.526667 0 -0.526667 0.106364 0
-0.995565 0.533333 0 -0.533333 0.132742 0
-0.99362 0.54 0 -0.54 0.158979 0
-0.991327 0.546667 0 -0.546667 0.185048 0
-0.988687 0.553333 0 -0.553333 0.21092 0
-0.985703 0.56 0 -0.56 0.236569 0
-0.982379 0.566667 0 -0.566667 0.261968 0
-0.978719 0.573333 0 -0.573333 0.287091 0
-0.974725 0.58 0 -0.58 0.311912 0
-0.970402 0.586667 0 -0.586667 0.336406 0
-0.965756 0.593333 0 -0.593333 0.360549 0
-0.960789 0.6 0 -0.6 0.384316 0
-0.955509 0.606667 0 -0.606667 0.407684 0
-0.94992 0.613333 0 -0.613333 0.43063 0
-0.944027 0.62 0 -0.62 0.453133 0
-0.937838 0.626667 0 -0.626667 0.475171 0
-0.931358 0.633333 0 -0.633333 0.496725 0
-0.924595 0.64 0 -0.64 0.517773 0
-0.917553 0.646667 0 -0.646667 0.538298 0
-0.910242 0.653333 0 -0.653333 0.558282 0
-0.902668 0.66 0 -0.66 0.577708 0
-0.894839 0.666667 0 -0.666667 0.59656 0
-0.886763 0.673333 0 -0.673333 0.614822 0
-0.878447 0.68 0 -0.68 0.632482 0
-0.869899 0.686667 0 -0.686667 0.649525 0
-0.861129 0.693333 0 -0.693333 0.66594 0
-0.852144 0.7 0 -0.7 0.681715 0
-0.842953 0.706667 0 -0.706667 0.696841 0
-0.833564 0.713333 0 -0.713333 0.711308 0
-0.823987 0.72 0 -0.72 0.725109 0
-0.814231 0.726667 0 -0.726667 0.738236 0
-0.804304 0.733333 0 -0.733333 0.750684 0
-0.794216 0.74 0 -0.74 0.762447 0
-0.783975 0.746667 0 -0.746667 0.773522 0
-0.773592 0.753333 0 -0.753333 0.783906 0
-0.763074 0.76 0 -0.76 0.793597 0
-0.752432 0.766667 0 -0.766667 0.802594 0
-0.741675 0.773333 0 -0.773333 0.810898 0
-0.730811 0.78 0 -0.78 0.818509 0
-0.719851 0.786667 0 -0.786667 0.825429 0
-0.708803 0.793333 0 -0.793333 0.831662 0
-0.697676 0.8 0 -0.8 0.837212 0
-0.68648 0.806667 0 -0.806667 0.842082 0
-0.675224 0.813333 0 -0.813333 0.84628 0
-0.663916 0.82 0 -0.82 0.849812 0
-0.652565 0.826667 0 -0.826667 0.852685 0
-0.64118 0.833333 0 -0.833333 0.854907 0
-0.62977 0.84 0 -0.84 0.856488 0
-0.618344 0.846667 0 -0.846667 0.857436 0
-0.606908 0.853333 0 -0.853333 0.857764 0
-0.595473 0.86 0 -0.86 0.85748 0
-0.584045 0.866667 0 -0.866667 0.856599 0
-0.572633 0.873333 0 -0.873333 0.855131 0
-0.561244 0.88 0 -0.88 0.85309 0
-0.549886 0.886667 0 -0.886667 0.85049 0
-0.538566 0.893333 0 -0.893333 0.847344 0
-0.527292 0.9 0 -0.9 0.843668 0
-0.516071 0.906667 0 -0.906667 0.839475 0
-0.504909 0.913333 0 -0.913333 0.834782 0
-0.493812 0.92 0 -0.92 0.829604 0
-0.482788 0.926667 0 -0.926667 0.823958 0
-0.471842 0.933333 0 -0.933333 0.817859 0
-0.46098 0.94 0 -0.94 0.811325 0
-0.450209 0.946667 0 -0.946667 0.804373 0
-0.439532 0.953333 0 -0.953333 0.797018 0
-0.428956 0.96 0 -0.96 0.78928 0
-0.418486 0.966667 0 -0.966667 0.781174 0
-0.408127 0.973333 0 -0.973333 0.77272 0
-0.397882 0.98 0 -0.98 0.763933 0
-0.387756 0.986667 0 -0.986667 0.754833 0
-0.377754 0.993333 0 -0.993333 0.745435 0
